<svg width="23" height="23" viewBox="0 0 23 23" fill="none" xmlns="http://www.w3.org/2000/svg">
<path d="M11.6426 6.30293C8.85689 6.30293 6.60996 8.56617 6.60996 11.3721C6.60996 14.1779 8.85689 16.4412 11.6426 16.4412C14.4282 16.4412 16.6752 14.1779 16.6752 11.3721C16.6752 8.56617 14.4282 6.30293 11.6426 6.30293ZM11.6426 14.6676C9.84239 14.6676 8.37072 13.1897 8.37072 11.3721C8.37072 9.5544 9.83801 8.07646 11.6426 8.07646C13.4471 8.07646 14.9144 9.5544 14.9144 11.3721C14.9144 13.1897 13.4427 14.6676 11.6426 14.6676ZM18.0549 6.09558C18.0549 6.75293 17.5293 7.27793 16.881 7.27793C16.2284 7.27793 15.7072 6.74852 15.7072 6.09558C15.7072 5.44264 16.2328 4.91323 16.881 4.91323C17.5293 4.91323 18.0549 5.44264 18.0549 6.09558ZM21.388 7.29558C21.3136 5.71176 20.9544 4.30882 19.8025 3.15293C18.6549 1.99705 17.2621 1.63529 15.6897 1.55587C14.0691 1.46323 9.21167 1.46323 7.59108 1.55587C6.02304 1.63087 4.63021 1.99264 3.47827 3.14852C2.32633 4.3044 1.97156 5.70735 1.89272 7.29117C1.80074 8.92352 1.80074 13.8162 1.89272 15.4485C1.96718 17.0323 2.32633 18.4353 3.47827 19.5912C4.63021 20.7471 6.01866 21.1088 7.59108 21.1882C9.21167 21.2809 14.0691 21.2809 15.6897 21.1882C17.2621 21.1132 18.6549 20.7515 19.8025 19.5912C20.95 18.4353 21.3092 17.0323 21.388 15.4485C21.48 13.8162 21.48 8.92793 21.388 7.29558ZM19.2944 17.2C18.9528 18.0647 18.2914 18.7309 17.4285 19.0794C16.1364 19.5956 13.0704 19.4765 11.6426 19.4765C10.2147 19.4765 7.14432 19.5912 5.8566 19.0794C4.99813 18.7353 4.33675 18.0691 3.99073 17.2C3.47827 15.8985 3.59653 12.8103 3.59653 11.3721C3.59653 9.93382 3.48265 6.84117 3.99073 5.54411C4.33237 4.6794 4.99375 4.01323 5.8566 3.6647C7.1487 3.14852 10.2147 3.26764 11.6426 3.26764C13.0704 3.26764 16.1408 3.15293 17.4285 3.6647C18.287 4.00882 18.9484 4.67499 19.2944 5.54411C19.8069 6.84558 19.6886 9.93382 19.6886 11.3721C19.6886 12.8103 19.8069 15.9029 19.2944 17.2Z" fill="black"/>
</svg>
