<svg width="59" height="57" viewBox="0 0 59 57" fill="none" xmlns="http://www.w3.org/2000/svg">
<path d="M6.034 41.086C10.122 41.394 8.806 44.432 7.21 43.396C7.028 42.598 6.454 41.73 5.936 41.17L6.034 41.086ZM1.736 43.354V42.822L3.64 43.494H3.388V46.994C3.388 49.318 3.22 52.342 0.518 54.302L0.364 54.19C1.652 52.09 1.736 49.43 1.736 46.994V43.354ZM12.04 42.332C12.04 42.332 13.02 43.13 13.594 43.676C13.552 43.83 13.412 43.9 13.216 43.9H2.492V43.494H11.172L12.04 42.332ZM11.494 45.132C11.494 45.132 12.516 45.972 13.118 46.532C13.076 46.686 12.936 46.756 12.726 46.756H7.98V46.364H10.598L11.494 45.132ZM9.296 44.25C9.268 44.446 9.156 44.572 8.778 44.642V49.402H7.14V44.068L9.296 44.25ZM11.06 52.524V52.916H4.704V52.524H11.06ZM4.088 48.478L5.782 49.122H10.248L11.004 48.268L12.46 49.374C12.362 49.486 12.222 49.57 11.914 49.64V53.798C11.914 53.868 11.41 54.162 10.584 54.162H10.318V49.528H5.628V53.882C5.628 53.98 5.166 54.246 4.368 54.246H4.088V48.478ZM25.55 44.628H25.41L26.166 43.774L27.776 45.02C27.692 45.132 27.496 45.258 27.216 45.3V52.314C27.216 53.462 26.936 54.12 24.934 54.302C24.878 53.756 24.78 53.364 24.528 53.112C24.248 52.846 23.898 52.65 23.072 52.524V52.328C23.072 52.328 24.78 52.454 25.214 52.454C25.48 52.454 25.55 52.342 25.55 52.146V44.628ZM16.17 44.628V43.914L17.948 44.628H26.502V45.034H17.808V53.658C17.808 53.854 17.136 54.26 16.436 54.26H16.17V44.628ZM18.774 41.912H21.462V42.304H18.9L18.774 41.912ZM20.65 44.74H22.246C21.826 46.784 20.93 49.038 17.85 50.48L17.696 50.312C19.656 48.646 20.398 46.448 20.65 44.74ZM21.196 41.912H20.86L21.378 41.114L22.778 42.108C22.596 42.318 22.162 42.43 21.602 42.472C22.036 45.37 23.24 47.806 25.83 48.982L25.788 49.15C25.214 49.346 24.752 49.878 24.584 50.424C22.288 48.744 21.504 46.07 21.196 42.136V41.912ZM34.874 41.842C34.804 42.01 34.622 42.122 34.314 42.122C33.194 44.95 31.654 47.078 29.722 48.52L29.568 48.394C30.73 46.644 31.934 43.844 32.522 41.114L34.874 41.842ZM33.558 45.272C33.516 45.398 33.404 45.496 33.124 45.552V53.77C33.11 53.896 32.438 54.26 31.794 54.26H31.486V45.566L32.116 44.74L33.558 45.272ZM36.498 41.142C40.614 42.108 39.032 45.244 37.478 43.97C37.408 43.004 36.904 41.94 36.372 41.226L36.498 41.142ZM41.902 46.014C41.846 46.21 41.706 46.35 41.356 46.364C40.782 48.24 39.662 51.054 38.416 53.196H38.22C38.794 50.914 39.312 47.694 39.564 45.454L41.902 46.014ZM34.86 45.692C39.326 50.004 36.862 53.602 35.77 51.782C35.784 50.242 35.602 47.68 34.692 45.79L34.86 45.692ZM41.314 51.698C41.314 51.698 42.406 52.566 43.05 53.154C43.008 53.308 42.854 53.378 42.658 53.378H33.502L33.39 52.972H40.348L41.314 51.698ZM41.118 43.298C41.118 43.298 42.154 44.11 42.784 44.67C42.742 44.824 42.588 44.894 42.392 44.894H33.852L33.74 44.502H40.194L41.118 43.298ZM47.04 46.336L48.79 47.008H53.424L54.152 46.084L55.888 47.288C55.79 47.442 55.636 47.512 55.258 47.568V53.406H53.564V47.4H48.664V53.406H47.04V46.336ZM56.126 52.16C56.126 52.16 57.148 52.902 57.778 53.434C57.75 53.588 57.596 53.658 57.4 53.658H44.772L44.66 53.252H55.216L56.126 52.16ZM52.472 44.726C52.43 44.964 52.234 45.09 51.926 45.132C51.674 45.776 51.226 46.77 50.96 47.344H49.952C50.036 46.63 50.134 45.342 50.176 44.446L52.472 44.726ZM54.348 51.628V52.02H47.796V51.628H54.348ZM54.362 50.116V50.508H47.81V50.116H54.362ZM54.362 48.604V48.996H47.81V48.604H54.362ZM55.888 44.488C55.888 44.488 56.868 45.188 57.484 45.706C57.442 45.86 57.288 45.93 57.092 45.93H44.828L44.716 45.538H55.02L55.888 44.488ZM53.382 41.982V44.18H51.926V41.982H53.382ZM50.414 41.982V44.18H48.972V41.982H50.414ZM54.768 41.982L55.51 41.198L57.05 42.36C56.98 42.458 56.784 42.584 56.504 42.64V44.6C56.49 44.698 55.72 45.02 55.188 45.02H54.908V41.982H54.768ZM47.516 44.726C47.516 44.866 46.802 45.202 46.172 45.202H45.948V41.324L47.642 41.982H55.37V42.388H47.516V44.726ZM55.482 43.998V44.39H46.718V43.998H55.482Z" fill="#3B3B3B"/>
<path d="M41.35 16.4444C41.35 24.4219 33.3055 28.4815 28.175 30.8889C23.902 28.8667 15 24.4219 15 16.4444C15 8.467 20.8986 2 28.175 2C35.4514 2 41.35 8.467 41.35 16.4444ZM23.0445 16.4444C23.0445 19.551 25.3415 20.4755 28.175 20.4755C31.0085 20.4755 33.3055 19.551 33.3055 16.4444C33.3055 13.3379 31.0085 10.8196 28.175 10.8196C25.3415 10.8196 23.0445 13.3379 23.0445 16.4444Z" fill="#3B3B3B"/>
</svg>
