<svg width="96" height="81" viewBox="0 0 96 81" fill="none" xmlns="http://www.w3.org/2000/svg">
<path d="M1 31.3353L47.0308 2L89 31.3353M1 31.3353H89M1 31.3353V80H89V31.3353" stroke="white" stroke-width="2"/>
<g clip-path="url(#clip0_479_66)">
<path d="M79.1348 50C77.5976 50 70.9981 50.1547 66.75 56.7148V50C66.75 45.8641 63.47 42.5 59.4375 42.5C58.0915 42.5 57 43.6195 57 45C57 46.3805 58.0915 47.5 59.4375 47.5C60.7811 47.5 61.875 48.6219 61.875 50V70C61.875 72.7578 64.0611 75 66.75 75H80.1562C80.8296 75 81.375 74.4406 81.375 73.75V72.5C81.375 71.1195 80.2834 70 78.9375 70H76.5L86.25 62.5V73.75C86.25 74.4406 86.7954 75 87.4687 75H89.9062C90.5796 75 91.125 74.4406 91.125 73.75V57.6453C90.3412 57.8539 89.5337 58 88.6875 58C83.9793 58 80.0404 54.5586 79.1348 50ZM91.125 42.5H86.25L81.375 37.5V48C81.375 52.1422 84.6488 55.5 88.6875 55.5C92.7261 55.5 96 52.1422 96 48V37.5L91.125 42.5ZM85.6406 48.75C84.9672 48.75 84.4218 48.1906 84.4218 47.5C84.4218 46.8094 84.9672 46.25 85.6406 46.25C86.314 46.25 86.8593 46.8094 86.8593 47.5C86.8593 48.1906 86.314 48.75 85.6406 48.75ZM91.7343 48.75C91.061 48.75 90.5156 48.1906 90.5156 47.5C90.5156 46.8094 91.061 46.25 91.7343 46.25C92.4077 46.25 92.9531 46.8094 92.9531 47.5C92.9531 48.1906 92.4077 48.75 91.7343 48.75Z" fill="white"/>
</g>
<defs>
<clipPath id="clip0_479_66">
<rect width="39" height="40" fill="white" transform="translate(57 35)"/>
</clipPath>
</defs>
</svg>
