<svg width="185" height="128" viewBox="0 0 185 128" fill="none" xmlns="http://www.w3.org/2000/svg">
<mask id="path-1-inside-1_479_239" fill="white">
<path fill-rule="evenodd" clip-rule="evenodd" d="M39.9433 3.29368C39.0633 4.7507 40.1083 7.89486 42.2658 10.282C45.1133 13.4325 45.4358 15.099 43.4458 16.3624C41.4533 17.6273 41.8658 18.1051 44.9508 18.1051C50.3083 18.1051 50.3958 14.3895 45.1558 9.3122C41.8958 6.15534 41.7133 4.93005 44.2108 3.01911C46.4508 1.30656 46.5108 0.646301 44.4283 0.646301C42.8408 0.646301 40.8233 1.83826 39.9433 3.29368ZM67.5933 3.04768C66.7933 4.36819 67.5183 6.50134 69.2008 7.78853C70.8833 9.07571 71.6083 11.2089 70.8083 12.5294C70.0108 13.8499 70.3808 14.9308 71.6308 14.9308C76.1083 14.9308 76.9258 11.7041 73.2833 8.40276C71.2458 6.5553 70.1758 4.05393 70.9058 2.84452C71.6383 1.6351 71.5183 0.646301 70.6408 0.646301C69.7608 0.646301 68.3908 1.72716 67.5933 3.04768ZM102.681 4.49041C101.931 5.73157 102.606 8.27737 104.181 10.147C106.353 12.7246 106.326 14.0975 104.068 15.8259C101.863 17.5131 101.838 18.1051 103.973 18.1051C108.421 18.1051 110.318 13.2563 107.136 10.0217C105.566 8.42657 104.946 6.02043 105.758 4.67769C106.571 3.33337 106.518 2.23346 105.641 2.23346C104.761 2.23346 103.431 3.24925 102.681 4.49041ZM113.261 22.4698C112.561 23.9982 111.238 28.8184 110.323 33.1831C108.458 42.076 103.396 48.2611 97.9808 48.2611C93.4533 48.2611 90.3408 44.4964 88.1458 36.3574C84.2933 22.0666 81.5808 21.2588 69.5008 30.8024C58.6833 39.3492 48.5408 39.6079 38.4683 31.5959C31.3058 25.8965 25.5783 24.5172 23.6408 28.0248C21.3358 32.1975 25.7758 93.5667 28.6208 96.86C33.7708 102.82 48.4958 106.077 73.0983 106.699C97.7933 107.324 114.393 105.277 121.568 100.722C124.101 99.1138 130.758 97.3076 136.363 96.7061C149.793 95.2649 158.428 90.7383 161.941 83.2977C167.448 71.6257 155.941 60.641 140.831 63.1503C138.211 63.5852 133.398 62.8313 130.138 61.4758C124.391 59.0856 124.258 58.5523 125.718 43.7171C127.293 27.6836 124.788 19.6922 118.181 19.6922C116.178 19.6922 113.963 20.9413 113.261 22.4698ZM121.681 37.5478C121.658 55.8509 117.593 81.6598 114.416 83.6771C113.266 84.4072 111.036 82.6613 109.461 79.7964C104.188 70.1941 90.2258 63.9883 85.2933 69.0545C84.3583 70.0164 82.8858 74.4794 82.0208 78.9743C80.7183 85.7562 79.6008 87.1466 75.4508 87.1466C71.4308 87.1466 70.1633 85.7785 68.9858 80.1726C67.2783 72.0527 61.3383 68.5435 50.4508 69.2212C44.0008 69.6227 42.8408 70.41 42.1683 74.8461C41.5283 79.0473 40.3033 80.0044 35.5608 80.0044C32.3558 80.0044 29.0533 78.8743 28.2183 77.4935C27.3833 76.1126 26.7008 64.1804 26.7008 50.9752V26.9678L37.4208 33.6466C53.1583 43.452 60.4758 42.7743 74.9708 30.1627C79.1283 26.5456 84.1958 28.0359 84.2158 32.88C84.2408 39.581 89.4658 48.2389 94.5183 49.9562C104.396 53.3115 109.388 47.5517 115.248 26.0409C115.843 23.8585 116.413 21.8952 116.516 21.6762C116.618 21.4572 117.826 21.2794 119.201 21.2794C120.706 21.2794 121.693 27.7518 121.681 37.5478ZM40.8683 44.5583C39.9508 45.1392 39.2008 47.9961 39.2008 50.9069C39.2008 55.1224 40.2083 56.1969 44.1533 56.1969C49.4708 56.1969 53.3733 50.1419 50.7983 45.8836C49.3133 43.4266 43.8083 42.6902 40.8683 44.5583ZM65.9533 44.5028C62.8333 46.4835 64.0958 52.5782 68.0558 54.6653C73.3458 57.4524 77.3158 54.6495 76.2708 48.8643C75.4883 44.5297 69.7383 42.0998 65.9533 44.5028ZM44.4133 53.5226C42.4633 54.7606 41.7008 54.113 41.7008 51.2244C41.7008 45.9899 45.2033 43.752 46.2883 48.2929C46.7483 50.2229 45.9033 52.5766 44.4133 53.5226ZM74.2008 49.0547C74.2008 51.4624 69.6408 53.8321 67.5558 52.5068C66.8358 52.0497 66.9908 50.1816 67.9033 48.358C69.6583 44.844 74.2008 45.3471 74.2008 49.0547ZM131.071 74.9985C129.796 86.8085 124.591 96.7188 118.226 99.4471C107.403 104.09 64.9558 105.654 47.3658 102.06C36.9533 99.9328 29.2008 93.619 29.2008 87.2672C29.2008 82.8724 30.0258 82.2676 35.9383 82.3232C41.5783 82.3756 42.9583 81.5312 44.3983 77.1459C46.6633 70.2576 48.0108 69.6005 56.1258 71.4305C62.7258 72.9193 62.9508 73.3573 62.9508 84.7008C62.9508 96.2267 63.0833 96.468 70.4508 98.463C82.8733 101.826 86.6208 101.149 90.8158 94.7745C94.3183 89.4527 94.3058 88.7401 90.6883 87.0609C86.1208 84.9404 85.0458 71.3178 89.3108 69.645C93.6933 67.9261 103.668 73.2653 105.393 78.2537C107.213 83.5104 112.668 87.1418 116.493 85.6404C117.876 85.0976 119.666 82.001 120.471 78.7584C121.276 75.5159 122.496 70.5401 123.181 67.7039C123.988 64.3677 125.838 62.5456 128.421 62.5456C131.856 62.5456 132.226 64.2931 131.071 74.9985ZM156.978 69.2244C162.843 76.1809 157.293 89.3369 147.418 91.8811C135.013 95.0776 129.201 95.6204 129.201 93.5825C129.201 92.4429 132.516 91.0907 136.568 90.5764C152.013 88.6147 157.773 81.4138 151.831 71.4924C150.268 68.8847 147.071 67.3055 142.456 66.8643C136.606 66.3056 136.983 66.1564 144.738 65.958C151.981 65.7723 154.676 66.4913 156.978 69.2244ZM149.571 72.7447C153.691 78.4855 150.403 83.9992 141.166 86.8403C136.708 88.21 132.896 89.1972 132.696 89.0337C132.493 88.8687 132.886 84.6627 133.563 79.6869C134.753 70.9798 135.863 69.9386 144.878 69.0783C145.941 68.9768 148.051 70.6274 149.571 72.7447ZM81.9158 89.4543C88.5033 87.2164 90.2258 88.302 88.2033 93.4206C86.4783 97.7837 81.4183 98.5234 70.8108 95.9633C66.2058 94.8507 64.9408 93.6286 65.9258 91.2399C66.9983 88.6322 68.1558 88.3227 71.9758 89.621C75.2283 90.7256 78.3258 90.6748 81.9158 89.4543ZM93.5508 96.5426C91.2033 99.6677 90.4158 102.225 91.8033 102.225C94.6058 102.225 99.8058 94.6475 98.5908 92.335C98.1658 91.524 95.8958 93.4174 93.5508 96.5426Z"/>
</mask>
<path fill-rule="evenodd" clip-rule="evenodd" d="M39.9433 3.29368C39.0633 4.7507 40.1083 7.89486 42.2658 10.282C45.1133 13.4325 45.4358 15.099 43.4458 16.3624C41.4533 17.6273 41.8658 18.1051 44.9508 18.1051C50.3083 18.1051 50.3958 14.3895 45.1558 9.3122C41.8958 6.15534 41.7133 4.93005 44.2108 3.01911C46.4508 1.30656 46.5108 0.646301 44.4283 0.646301C42.8408 0.646301 40.8233 1.83826 39.9433 3.29368ZM67.5933 3.04768C66.7933 4.36819 67.5183 6.50134 69.2008 7.78853C70.8833 9.07571 71.6083 11.2089 70.8083 12.5294C70.0108 13.8499 70.3808 14.9308 71.6308 14.9308C76.1083 14.9308 76.9258 11.7041 73.2833 8.40276C71.2458 6.5553 70.1758 4.05393 70.9058 2.84452C71.6383 1.6351 71.5183 0.646301 70.6408 0.646301C69.7608 0.646301 68.3908 1.72716 67.5933 3.04768ZM102.681 4.49041C101.931 5.73157 102.606 8.27737 104.181 10.147C106.353 12.7246 106.326 14.0975 104.068 15.8259C101.863 17.5131 101.838 18.1051 103.973 18.1051C108.421 18.1051 110.318 13.2563 107.136 10.0217C105.566 8.42657 104.946 6.02043 105.758 4.67769C106.571 3.33337 106.518 2.23346 105.641 2.23346C104.761 2.23346 103.431 3.24925 102.681 4.49041ZM113.261 22.4698C112.561 23.9982 111.238 28.8184 110.323 33.1831C108.458 42.076 103.396 48.2611 97.9808 48.2611C93.4533 48.2611 90.3408 44.4964 88.1458 36.3574C84.2933 22.0666 81.5808 21.2588 69.5008 30.8024C58.6833 39.3492 48.5408 39.6079 38.4683 31.5959C31.3058 25.8965 25.5783 24.5172 23.6408 28.0248C21.3358 32.1975 25.7758 93.5667 28.6208 96.86C33.7708 102.82 48.4958 106.077 73.0983 106.699C97.7933 107.324 114.393 105.277 121.568 100.722C124.101 99.1138 130.758 97.3076 136.363 96.7061C149.793 95.2649 158.428 90.7383 161.941 83.2977C167.448 71.6257 155.941 60.641 140.831 63.1503C138.211 63.5852 133.398 62.8313 130.138 61.4758C124.391 59.0856 124.258 58.5523 125.718 43.7171C127.293 27.6836 124.788 19.6922 118.181 19.6922C116.178 19.6922 113.963 20.9413 113.261 22.4698ZM121.681 37.5478C121.658 55.8509 117.593 81.6598 114.416 83.6771C113.266 84.4072 111.036 82.6613 109.461 79.7964C104.188 70.1941 90.2258 63.9883 85.2933 69.0545C84.3583 70.0164 82.8858 74.4794 82.0208 78.9743C80.7183 85.7562 79.6008 87.1466 75.4508 87.1466C71.4308 87.1466 70.1633 85.7785 68.9858 80.1726C67.2783 72.0527 61.3383 68.5435 50.4508 69.2212C44.0008 69.6227 42.8408 70.41 42.1683 74.8461C41.5283 79.0473 40.3033 80.0044 35.5608 80.0044C32.3558 80.0044 29.0533 78.8743 28.2183 77.4935C27.3833 76.1126 26.7008 64.1804 26.7008 50.9752V26.9678L37.4208 33.6466C53.1583 43.452 60.4758 42.7743 74.9708 30.1627C79.1283 26.5456 84.1958 28.0359 84.2158 32.88C84.2408 39.581 89.4658 48.2389 94.5183 49.9562C104.396 53.3115 109.388 47.5517 115.248 26.0409C115.843 23.8585 116.413 21.8952 116.516 21.6762C116.618 21.4572 117.826 21.2794 119.201 21.2794C120.706 21.2794 121.693 27.7518 121.681 37.5478ZM40.8683 44.5583C39.9508 45.1392 39.2008 47.9961 39.2008 50.9069C39.2008 55.1224 40.2083 56.1969 44.1533 56.1969C49.4708 56.1969 53.3733 50.1419 50.7983 45.8836C49.3133 43.4266 43.8083 42.6902 40.8683 44.5583ZM65.9533 44.5028C62.8333 46.4835 64.0958 52.5782 68.0558 54.6653C73.3458 57.4524 77.3158 54.6495 76.2708 48.8643C75.4883 44.5297 69.7383 42.0998 65.9533 44.5028ZM44.4133 53.5226C42.4633 54.7606 41.7008 54.113 41.7008 51.2244C41.7008 45.9899 45.2033 43.752 46.2883 48.2929C46.7483 50.2229 45.9033 52.5766 44.4133 53.5226ZM74.2008 49.0547C74.2008 51.4624 69.6408 53.8321 67.5558 52.5068C66.8358 52.0497 66.9908 50.1816 67.9033 48.358C69.6583 44.844 74.2008 45.3471 74.2008 49.0547ZM131.071 74.9985C129.796 86.8085 124.591 96.7188 118.226 99.4471C107.403 104.09 64.9558 105.654 47.3658 102.06C36.9533 99.9328 29.2008 93.619 29.2008 87.2672C29.2008 82.8724 30.0258 82.2676 35.9383 82.3232C41.5783 82.3756 42.9583 81.5312 44.3983 77.1459C46.6633 70.2576 48.0108 69.6005 56.1258 71.4305C62.7258 72.9193 62.9508 73.3573 62.9508 84.7008C62.9508 96.2267 63.0833 96.468 70.4508 98.463C82.8733 101.826 86.6208 101.149 90.8158 94.7745C94.3183 89.4527 94.3058 88.7401 90.6883 87.0609C86.1208 84.9404 85.0458 71.3178 89.3108 69.645C93.6933 67.9261 103.668 73.2653 105.393 78.2537C107.213 83.5104 112.668 87.1418 116.493 85.6404C117.876 85.0976 119.666 82.001 120.471 78.7584C121.276 75.5159 122.496 70.5401 123.181 67.7039C123.988 64.3677 125.838 62.5456 128.421 62.5456C131.856 62.5456 132.226 64.2931 131.071 74.9985ZM156.978 69.2244C162.843 76.1809 157.293 89.3369 147.418 91.8811C135.013 95.0776 129.201 95.6204 129.201 93.5825C129.201 92.4429 132.516 91.0907 136.568 90.5764C152.013 88.6147 157.773 81.4138 151.831 71.4924C150.268 68.8847 147.071 67.3055 142.456 66.8643C136.606 66.3056 136.983 66.1564 144.738 65.958C151.981 65.7723 154.676 66.4913 156.978 69.2244ZM149.571 72.7447C153.691 78.4855 150.403 83.9992 141.166 86.8403C136.708 88.21 132.896 89.1972 132.696 89.0337C132.493 88.8687 132.886 84.6627 133.563 79.6869C134.753 70.9798 135.863 69.9386 144.878 69.0783C145.941 68.9768 148.051 70.6274 149.571 72.7447ZM81.9158 89.4543C88.5033 87.2164 90.2258 88.302 88.2033 93.4206C86.4783 97.7837 81.4183 98.5234 70.8108 95.9633C66.2058 94.8507 64.9408 93.6286 65.9258 91.2399C66.9983 88.6322 68.1558 88.3227 71.9758 89.621C75.2283 90.7256 78.3258 90.6748 81.9158 89.4543ZM93.5508 96.5426C91.2033 99.6677 90.4158 102.225 91.8033 102.225C94.6058 102.225 99.8058 94.6475 98.5908 92.335C98.1658 91.524 95.8958 93.4174 93.5508 96.5426Z" fill="#3B3B3B" stroke="#3B3B3B" stroke-width="2" mask="url(#path-1-inside-1_479_239)"/>
<path d="M158.626 113.108C157.994 109.502 158.494 107.622 160.243 107.034C161.469 106.623 163.444 106.884 165.236 107.696C167.185 108.579 166.601 108.848 163.839 108.339C162.117 108.022 161.442 108.029 160.875 108.371C160.108 108.833 160.052 112.027 160.748 115.517C161.153 117.541 162.045 117.877 164.724 117.016C165.39 116.802 166.11 116.732 166.324 116.861C166.941 117.232 163.88 118.467 162.321 118.476C161.056 118.483 160.943 118.608 161.246 119.653C162.093 122.563 162.37 126.036 161.757 126.036C161.407 126.036 160.978 125.753 160.804 125.407C160.57 124.943 159.243 119.161 159.243 118.608C159.243 118.567 158.636 118.482 157.895 118.419C157.154 118.356 156.547 118.061 156.547 117.764C156.547 117.468 157.154 117.173 157.895 117.11C158.636 117.047 159.238 116.885 159.232 116.75C159.226 116.616 158.954 114.977 158.626 113.108Z" fill="#3B3B3B"/>
<path d="M2.71883 120.282C1.93772 120.282 1.46331 119.087 0.16646 113.855C-0.133643 112.643 -0.0432737 112.32 0.562923 112.441C1.46263 112.621 2.01979 113.815 2.59364 116.796C2.85361 118.144 3.24478 118.837 3.69763 118.749C4.08339 118.675 5.77906 117.418 7.46526 115.957C9.15207 114.496 10.827 113.241 11.1876 113.169C11.5476 113.097 12.004 113.494 12.201 114.053C12.6677 115.372 15.5364 119.143 16.402 119.574C17.3011 120.022 19.5515 118.57 22.5196 115.627C24.8611 113.306 26.2628 112.542 26.2628 113.587C26.2628 114.978 19.8702 120.442 17.7761 120.84C16.1683 121.147 14.2862 119.915 12.3873 117.315C11.7015 116.375 10.9318 115.607 10.6772 115.607C10.4226 115.607 9.36358 116.403 8.32371 117.376C6.42245 119.154 4.24809 120.282 2.71883 120.282Z" fill="#3B3B3B"/>
<path d="M174.983 121.881C169.863 119.867 170.121 114.588 175.416 113C177.963 112.236 177.774 112.237 179.112 112.965C181.756 114.401 179.76 116.779 175.38 117.41C173.464 117.686 172.421 118.026 172.421 118.376C172.421 119.304 176.339 121.357 178.201 121.403C180.994 121.473 181.626 121.346 183.353 120.364C184.259 119.849 185 119.613 185 119.838C185 120.726 183.555 122.079 182.363 122.307C180.312 122.701 176.507 122.481 174.983 121.881Z" fill="#3B3B3B"/>
<path d="M124.639 120.286C124.981 117.41 126.538 115.62 129.445 114.76C131.656 114.105 131.837 114.087 133.137 114.386C134.652 114.735 134.239 115.17 132.138 115.437C128.299 115.924 126.308 117.917 126.301 121.279C126.298 122.576 126.534 122.88 127.819 123.231C129.088 123.578 129.789 123.517 132.028 122.864C135.25 121.924 136.346 121.85 135.246 122.646C134.178 123.418 130.217 124.598 128.69 124.598C128.003 124.598 126.745 124.18 125.893 123.669C124.459 122.807 124.368 122.561 124.639 120.286Z" fill="#3B3B3B"/>
<path d="M32.8519 117.728C32.8519 117.313 33.8026 116.402 34.9647 115.705C36.8396 114.579 37.3271 114.461 39.3075 114.651C43.5125 115.055 45.1328 117.724 42.0557 119.177C40.9032 119.721 39.6081 119.922 37.2558 119.922H34.0337L34.9633 121.258C35.4743 121.992 36.3285 122.883 36.861 123.236C38.2567 124.161 41.4871 124.047 44.1042 122.979C47.2538 121.694 48.4621 121.818 46.2919 123.203C44.4235 124.396 41.4566 125.317 39.4811 125.317C37.4744 125.317 34.2134 123.281 33.1543 121.366C32.4469 120.088 31.8354 119.576 30.9159 119.495C28.832 119.31 28.905 118.484 31.0051 118.484C32.4817 118.484 32.8519 118.332 32.8519 117.728Z" fill="#3B3B3B"/>
<path d="M95.7478 116.724C95.7478 115.78 95.9329 114.896 96.1599 114.76C97.192 114.14 97.8299 114.89 97.634 116.495L97.4237 118.218L99.5808 117.975C102.506 117.645 102.552 118.62 99.6413 119.252C97.2668 119.768 97.068 120.35 98.1935 123.502C99.1897 126.29 101.806 126.944 105.781 125.399C106.974 124.935 107.129 124.939 107.129 125.431C107.129 126.25 103.931 127.475 101.795 127.475C98.4469 127.475 96.4714 125.637 95.8221 121.918L95.4483 119.777L93.3517 119.76C90.3423 119.735 90.4705 118.702 93.5015 118.552L95.7478 118.44V116.724Z" fill="#3B3B3B"/>
<path d="M63.46 124.995C61.509 124.234 63.1503 117.212 65.6793 115.499C66.3616 115.037 67.3128 114.883 69.0145 114.96C72.0383 115.096 72.7471 115.966 69.8335 115.966C66.4515 115.966 64.812 117.782 64.4759 121.9L64.2998 124.058L66.8228 124.168C68.2101 124.229 69.9179 124.094 70.6175 123.869C72.4672 123.275 72.9292 123.822 71.2627 124.633C68.8421 125.811 65.8991 125.948 63.46 124.995Z" fill="#3B3B3B"/>
<path d="M142.144 121.557C139.729 120.108 140.392 116.749 143.334 115.522C145.138 114.77 150.857 115.784 150.857 116.856C150.857 117.297 150.569 117.296 148.779 116.847C147.637 116.56 146.051 116.326 145.254 116.326C142.331 116.326 140.703 119.536 142.995 120.781C144.062 121.361 144.196 121.336 145.678 120.278C146.536 119.666 147.512 118.89 147.848 118.555C148.396 118.005 148.592 118.041 149.806 118.911C150.549 119.443 151.75 120.455 152.476 121.159C154.416 123.041 152.539 122.864 150.449 120.967C148.941 119.6 148.771 119.542 148.046 120.158C146.711 121.293 144.766 122.44 144.177 122.44C143.867 122.44 142.953 122.042 142.144 121.557Z" fill="#3B3B3B"/>
<path d="M75.1161 124.158C73.7174 122.96 73.9091 120.229 75.4749 119.034C76.5657 118.201 77.085 118.079 78.8227 118.249C81.0486 118.465 82.7337 119.112 82.2629 119.569C82.1018 119.726 81.0223 119.68 79.865 119.467C78.0392 119.131 77.6458 119.171 76.8898 119.771C75.6313 120.769 75.7043 123.378 76.9994 123.677C78.4394 124.008 80.9595 122.785 81.6453 121.422C82.3947 119.931 83.1099 119.993 85.1543 121.728C86.1576 122.579 87.3239 123.159 88.035 123.159C88.6921 123.159 89.0628 123.321 88.8592 123.519C88.2506 124.11 85.8227 123.927 84.7385 123.207C83.7591 122.557 83.6627 122.575 81.7106 123.747C79.2612 125.217 76.5489 125.386 75.1161 124.158Z" fill="#3B3B3B"/>
</svg>
