<svg width="59" height="57" viewBox="0 0 59 57" fill="none" xmlns="http://www.w3.org/2000/svg">
<path d="M10.08 52.384C10.08 53.364 9.828 54.008 8.148 54.148C8.12 53.714 8.05 53.378 7.84 53.168C7.644 52.958 7.35 52.804 6.678 52.692V52.51C6.678 52.51 8.036 52.594 8.316 52.594C8.54 52.594 8.61 52.51 8.61 52.356V46.812H10.08V52.384ZM13.566 48.66C13.496 48.758 13.286 48.842 13.02 48.744C12.558 49.052 11.634 49.584 10.85 49.962L10.738 49.85C11.172 49.15 11.76 48.002 11.984 47.442L13.566 48.66ZM10.57 41.562C10.514 41.786 10.318 41.884 10.01 41.898C9.646 42.248 9.03 42.766 8.638 43.102H8.19C8.26 42.598 8.344 41.688 8.372 41.086L10.57 41.562ZM7 48.422L7.742 47.694L9.058 48.786C8.96 48.912 8.82 48.968 8.526 48.982C7.896 50.886 6.566 52.566 4.228 53.532L4.116 53.35C5.838 52.188 6.79 50.34 7.14 48.422H7ZM7.63 48.45V48.842H5.432L5.306 48.45H7.63ZM9.968 47.106C10.584 49.822 12.208 51.138 13.734 51.88L13.692 52.02C13.104 52.174 12.67 52.706 12.488 53.406C11.046 51.992 10.262 50.354 9.856 47.162L9.968 47.106ZM11.536 46.644V47.036H7.056V46.644H11.536ZM11.536 44.796V45.202H7.056V44.796H11.536ZM6.062 42.346L7.63 42.962H10.976L11.676 42.164L13.034 43.2C12.95 43.312 12.81 43.41 12.516 43.466V47.372C12.516 47.442 12.04 47.708 11.284 47.708H11.032V43.354H7.476V47.582C7.476 47.68 7.042 47.932 6.314 47.932H6.062V42.346ZM5.992 44.404C5.908 44.572 5.614 44.684 5.166 44.488L5.586 44.39C4.746 45.692 2.8 47.736 1.232 48.828L1.218 48.66H1.932C1.82 49.542 1.512 50.018 1.134 50.13L0.574 48.45C0.574 48.45 0.938 48.38 1.064 48.268C2.198 47.33 3.752 44.796 4.284 43.382L5.992 44.404ZM4.606 42.038C4.536 42.22 4.256 42.346 3.794 42.178L4.228 42.094C3.584 43.13 2.268 44.656 1.246 45.44L1.232 45.272H1.96C1.89 46.084 1.624 46.56 1.302 46.7L0.63 45.062C0.63 45.062 0.91 45.006 1.022 44.908C1.666 44.222 2.492 42.22 2.744 41.142L4.606 42.038ZM1.82 50.228C2.31 51.74 2.114 52.874 1.68 53.42C1.358 53.812 0.63 53.826 0.378 53.35C0.168 52.944 0.378 52.538 0.742 52.258C1.148 51.908 1.638 51.026 1.624 50.214L1.82 50.228ZM3.822 49.542C6.622 50.508 5.474 52.608 4.452 51.726C4.424 51.026 4.032 50.144 3.668 49.612L3.822 49.542ZM2.716 49.892C5.04 51.81 3.584 53.966 2.66 52.804C2.842 51.88 2.73 50.746 2.534 49.948L2.716 49.892ZM3.794 46.728C6.706 48.142 5.502 50.368 4.452 49.402C4.396 48.548 4.004 47.498 3.626 46.798L3.794 46.728ZM0.924 48.422C1.652 48.408 3.374 48.296 5.068 48.156L5.082 48.352C4.354 48.66 2.94 49.276 1.372 49.822L0.924 48.422ZM0.896 45.118C1.54 45.146 2.94 45.146 4.298 45.118L4.312 45.3C3.78 45.566 2.66 46.056 1.442 46.49L0.896 45.118ZM20.342 41.31L22.652 41.534C22.624 41.744 22.512 41.884 22.134 41.94V53.336H20.342V41.31ZM21.35 46.602H24.43L25.438 45.328C25.438 45.328 26.558 46.182 27.244 46.784C27.202 46.938 27.048 47.008 26.852 47.008H21.35V46.602ZM15.12 53.112H25.424L26.432 51.81C26.432 51.81 27.594 52.678 28.294 53.28C28.252 53.434 28.084 53.504 27.874 53.504H15.232L15.12 53.112ZM41.426 41.296C41.426 41.296 42.462 42.15 43.078 42.724C43.036 42.878 42.882 42.948 42.686 42.948H36.498L36.386 42.556H40.502L41.426 41.296ZM40.502 52.16C40.502 53.252 40.222 54.05 38.318 54.204C38.29 53.672 38.192 53.266 37.94 53.028C37.688 52.776 37.352 52.58 36.54 52.468V52.286C36.54 52.286 38.22 52.384 38.57 52.384C38.822 52.384 38.892 52.286 38.892 52.09V42.682H40.502V52.16ZM31.892 41.212C35.672 41.422 34.286 44.348 32.774 43.312C32.69 42.584 32.228 41.772 31.794 41.296L31.892 41.212ZM34.888 52.37V52.762H31.752V52.37H34.888ZM34.104 49.318L34.818 48.548L36.302 49.682C36.204 49.78 36.022 49.892 35.742 49.948V53.14C35.728 53.238 35 53.546 34.496 53.546H34.244V49.318H34.104ZM32.298 53.588C32.298 53.728 31.654 54.05 31.038 54.05H30.828V48.702L32.354 49.318H34.72V49.71H32.298V53.588ZM35.49 42.766C35.49 42.766 36.372 43.466 36.918 43.956C36.89 44.11 36.736 44.18 36.54 44.18H29.946L29.834 43.788H34.692L35.49 42.766ZM34.734 46.42C34.734 46.42 35.616 47.092 36.148 47.582C36.106 47.736 35.966 47.806 35.77 47.806H30.87L30.758 47.414H33.978L34.734 46.42ZM34.734 44.6C34.734 44.6 35.616 45.272 36.148 45.762C36.106 45.916 35.966 45.986 35.77 45.986H30.87L30.758 45.594H33.978L34.734 44.6ZM49.574 41.842C49.504 42.01 49.322 42.122 49.014 42.122C47.894 44.95 46.354 47.078 44.422 48.52L44.268 48.394C45.43 46.644 46.634 43.844 47.222 41.114L49.574 41.842ZM48.258 45.272C48.216 45.398 48.104 45.496 47.824 45.552V53.77C47.81 53.896 47.138 54.26 46.494 54.26H46.186V45.566L46.816 44.74L48.258 45.272ZM51.198 41.142C55.314 42.108 53.732 45.244 52.178 43.97C52.108 43.004 51.604 41.94 51.072 41.226L51.198 41.142ZM56.602 46.014C56.546 46.21 56.406 46.35 56.056 46.364C55.482 48.24 54.362 51.054 53.116 53.196H52.92C53.494 50.914 54.012 47.694 54.264 45.454L56.602 46.014ZM49.56 45.692C54.026 50.004 51.562 53.602 50.47 51.782C50.484 50.242 50.302 47.68 49.392 45.79L49.56 45.692ZM56.014 51.698C56.014 51.698 57.106 52.566 57.75 53.154C57.708 53.308 57.554 53.378 57.358 53.378H48.202L48.09 52.972H55.048L56.014 51.698ZM55.818 43.298C55.818 43.298 56.854 44.11 57.484 44.67C57.442 44.824 57.288 44.894 57.092 44.894H48.552L48.44 44.502H54.894L55.818 43.298Z" fill="white"/>
<g clip-path="url(#clip0_1141_3)">
<path d="M27.4932 0.920269C27.5479 1.20484 28.5938 6.64195 28.5938 8.71871C28.5938 11.8853 26.6934 14.1437 23.8838 15.0519L24.7656 29.4681C24.8135 30.2976 24.0684 31 23.125 31H18.75C17.8135 31 17.0615 30.3037 17.1094 29.4681L17.9912 15.0519C15.1748 14.1437 13.2812 11.8793 13.2812 8.71871C13.2812 6.63589 14.3271 1.20484 14.3818 0.920269C14.6006 -0.308832 17.4785 -0.326996 17.6562 0.986871V9.53609C17.7451 9.74195 18.6885 9.72984 18.75 9.53609C18.8457 8.00425 19.29 1.10796 19.2969 0.950543C19.5225 -0.308832 22.3525 -0.308832 22.5713 0.950543C22.585 1.11402 23.0225 8.00425 23.1182 9.53609C23.1797 9.72984 24.1299 9.74195 24.2119 9.53609V0.986871C24.3896 -0.320942 27.2744 -0.308832 27.4932 0.920269ZM35.6416 18.2185L34.6162 29.4257C34.5342 30.2734 35.293 31 36.25 31H40.0781C40.9873 31 41.7188 30.3521 41.7188 29.5468V1.45308C41.7188 0.653863 40.9873 -4.31628e-05 40.0781 -4.31628e-05C34.4385 -4.31628e-05 24.9434 10.8076 35.6416 18.2185Z" fill="#C7C7C7"/>
</g>
<defs>
<clipPath id="clip0_1141_3">
<rect width="35" height="31" fill="white" transform="translate(10)"/>
</clipPath>
</defs>
</svg>
