<svg width="24" height="23" viewBox="0 0 24 23" fill="none" xmlns="http://www.w3.org/2000/svg">
<g clip-path="url(#clip0_1412_45)">
<path d="M13.7547 10.7356V13.9295C13.7547 14.0104 13.6891 14.0733 13.6047 14.0733H13.0703C13.0188 14.0733 12.9719 14.0463 12.9484 14.0149L11.4203 12.0383V13.934C11.4203 14.0149 11.3547 14.0777 11.2703 14.0777H10.7359C10.6516 14.0777 10.5859 14.0149 10.5859 13.934V10.74C10.5859 10.6592 10.6516 10.5963 10.7359 10.5963H11.2656C11.3125 10.5963 11.3641 10.6188 11.3875 10.6592L12.9156 12.6358V10.74C12.9156 10.6592 12.9813 10.5963 13.0656 10.5963H13.6C13.6844 10.5918 13.7547 10.6592 13.7547 10.7356ZM9.91095 10.5918H9.37657C9.2922 10.5918 9.22657 10.6547 9.22657 10.7356V13.9295C9.22657 14.0104 9.2922 14.0733 9.37657 14.0733H9.91095C9.99532 14.0733 10.0609 14.0104 10.0609 13.9295V10.7356C10.0609 10.6592 9.99532 10.5918 9.91095 10.5918ZM8.62189 13.2692H7.16407V10.7356C7.16407 10.6547 7.09845 10.5918 7.01407 10.5918H6.4797C6.39532 10.5918 6.3297 10.6547 6.3297 10.7356V13.9295C6.3297 13.9699 6.34376 14.0014 6.37188 14.0283C6.40001 14.0508 6.43282 14.0688 6.47501 14.0688H8.6172C8.70157 14.0688 8.7672 14.0059 8.7672 13.925V13.4129C8.7672 13.3365 8.70157 13.2692 8.62189 13.2692ZM16.5672 10.5918H14.425C14.3453 10.5918 14.275 10.6547 14.275 10.7356V13.9295C14.275 14.0059 14.3406 14.0733 14.425 14.0733H16.5672C16.6516 14.0733 16.7172 14.0104 16.7172 13.9295V13.4174C16.7172 13.3365 16.6516 13.2736 16.5672 13.2736H15.1094V12.7346H16.5672C16.6516 12.7346 16.7172 12.6717 16.7172 12.5908V12.0742C16.7172 11.9934 16.6516 11.9305 16.5672 11.9305H15.1094V11.3914H16.5672C16.6516 11.3914 16.7172 11.3285 16.7172 11.2477V10.7356C16.7125 10.6592 16.6469 10.5918 16.5672 10.5918ZM22 6.67013V19.4863C21.9953 21.4988 20.275 23.1295 18.1703 23.125H4.79689C2.69688 23.1205 0.995322 21.4674 1.00001 19.4549V6.63868C1.0047 4.62618 2.7297 2.99552 4.8297 3.00001H18.2031C20.3031 3.0045 22.0047 4.65313 22 6.67013ZM19.1125 12.1775C19.1125 8.89825 15.6813 6.22989 11.4672 6.22989C7.25314 6.22989 3.82188 8.89825 3.82188 12.1775C3.82188 15.1154 6.54064 17.5772 10.2156 18.0443C11.1109 18.2285 11.0078 18.543 10.8063 19.6975C10.7734 19.8817 10.6516 20.4207 11.4672 20.0928C12.2828 19.7649 15.8688 17.6086 17.4766 15.8387C18.5828 14.6707 19.1125 13.4893 19.1125 12.1775Z" fill="black"/>
</g>
<defs>
<clipPath id="clip0_1412_45">
<rect width="24" height="23" fill="white"/>
</clipPath>
</defs>
</svg>
