<svg width="185" height="127" viewBox="0 0 185 127" fill="none" xmlns="http://www.w3.org/2000/svg">
<mask id="path-1-inside-1_499_31" fill="white">
<path fill-rule="evenodd" clip-rule="evenodd" d="M39.9433 2.64738C39.0633 4.1044 40.1083 7.24856 42.2658 9.63565C45.1133 12.7862 45.4358 14.4527 43.4458 15.7161C41.4533 16.981 41.8658 17.4588 44.9508 17.4588C50.3083 17.4588 50.3958 13.7432 45.1558 8.6659C41.8958 5.50903 41.7133 4.28375 44.2108 2.3728C46.4508 0.660257 46.5108 0 44.4283 0C42.8408 0 40.8233 1.19196 39.9433 2.64738ZM67.5933 2.40138C66.7933 3.72189 67.5183 5.85504 69.2008 7.14223C70.8833 8.42941 71.6083 10.5626 70.8083 11.8831C70.0108 13.2036 70.3808 14.2845 71.6308 14.2845C76.1083 14.2845 76.9258 11.0578 73.2833 7.75646C71.2458 5.909 70.1758 3.40763 70.9058 2.19822C71.6383 0.988799 71.5183 0 70.6408 0C69.7608 0 68.3908 1.08086 67.5933 2.40138ZM102.681 3.84411C101.931 5.08527 102.606 7.63107 104.181 9.50075C106.353 12.0783 106.326 13.4512 104.068 15.1796C101.863 16.8668 101.838 17.4588 103.973 17.4588C108.421 17.4588 110.318 12.61 107.136 9.37536C105.566 7.78027 104.946 5.37413 105.758 4.03139C106.571 2.68707 106.518 1.58716 105.641 1.58716C104.761 1.58716 103.431 2.60295 102.681 3.84411ZM113.261 21.8235C112.561 23.3519 111.238 28.1721 110.323 32.5368C108.458 41.4297 103.396 47.6148 97.9808 47.6148C93.4533 47.6148 90.3408 43.8501 88.1458 35.7111C84.2933 21.4203 81.5808 20.6125 69.5008 30.1561C58.6833 38.7029 48.5408 38.9616 38.4683 30.9496C31.3058 25.2502 25.5783 23.8709 23.6408 27.3785C21.3358 31.5512 25.7758 92.9203 28.6208 96.2137C33.7708 102.174 48.4958 105.43 73.0983 106.053C97.7933 106.678 114.393 104.63 121.568 100.075C124.101 98.4675 130.758 96.6613 136.363 96.0598C149.793 94.6186 158.428 90.092 161.941 82.6514C167.448 70.9794 155.941 59.9947 140.831 62.504C138.211 62.9389 133.398 62.185 130.138 60.8295C124.391 58.4393 124.258 57.906 125.718 43.0708C127.293 27.0373 124.788 19.0459 118.181 19.0459C116.178 19.0459 113.963 20.295 113.261 21.8235ZM121.681 36.9015C121.658 55.2046 117.593 81.0135 114.416 83.0308C113.266 83.7608 111.036 82.015 109.461 79.1501C104.188 69.5478 90.2258 63.342 85.2933 68.4082C84.3583 69.3701 82.8858 73.8331 82.0208 78.328C80.7183 85.1099 79.6008 86.5003 75.4508 86.5003C71.4308 86.5003 70.1633 85.1322 68.9858 79.5263C67.2783 71.4064 61.3383 67.8972 50.4508 68.5749C44.0008 68.9764 42.8408 69.7637 42.1683 74.1998C41.5283 78.401 40.3033 79.3581 35.5608 79.3581C32.3558 79.3581 29.0533 78.228 28.2183 76.8472C27.3833 75.4663 26.7008 63.5341 26.7008 50.3289V26.3215L37.4208 33.0003C53.1583 42.8057 60.4758 42.128 74.9708 29.5164C79.1283 25.8993 84.1958 27.3896 84.2158 32.2337C84.2408 38.9347 89.4658 47.5926 94.5183 49.3099C104.396 52.6652 109.388 46.9054 115.248 25.3946C115.843 23.2122 116.413 21.2489 116.516 21.0299C116.618 20.8109 117.826 20.6331 119.201 20.6331C120.706 20.6331 121.693 27.1055 121.681 36.9015ZM40.8683 43.912C39.9508 44.4929 39.2008 47.3498 39.2008 50.2606C39.2008 54.4761 40.2083 55.5506 44.1533 55.5506C49.4708 55.5506 53.3733 49.4956 50.7983 45.2373C49.3133 42.7803 43.8083 42.0439 40.8683 43.912ZM65.9533 43.8564C62.8333 45.8372 64.0958 51.9319 68.0558 54.019C73.3458 56.8061 77.3158 54.0032 76.2708 48.218C75.4883 43.8834 69.7383 41.4535 65.9533 43.8564ZM44.4133 52.8763C42.4633 54.1143 41.7008 53.4667 41.7008 50.5781C41.7008 45.3436 45.2033 43.1057 46.2883 47.6466C46.7483 49.5766 45.9033 51.9303 44.4133 52.8763ZM74.2008 48.4084C74.2008 50.8161 69.6408 53.1858 67.5558 51.8605C66.8358 51.4034 66.9908 49.5353 67.9033 47.7117C69.6583 44.1977 74.2008 44.7008 74.2008 48.4084ZM131.071 74.3522C129.796 86.1622 124.591 96.0724 118.226 98.8008C107.403 103.443 64.9558 105.008 47.3658 101.413C36.9533 99.2865 29.2008 92.9727 29.2008 86.6209C29.2008 82.2261 30.0258 81.6213 35.9383 81.6769C41.5783 81.7293 42.9583 80.8849 44.3983 76.4996C46.6633 69.6113 48.0108 68.9542 56.1258 70.7842C62.7258 72.273 62.9508 72.711 62.9508 84.0545C62.9508 95.5804 63.0833 95.8217 70.4508 97.8167C82.8733 101.18 86.6208 100.502 90.8158 94.1282C94.3183 88.8064 94.3058 88.0938 90.6883 86.4146C86.1208 84.2941 85.0458 70.6715 89.3108 68.9987C93.6933 67.2798 103.668 72.619 105.393 77.6074C107.213 82.8641 112.668 86.4955 116.493 84.9941C117.876 84.4513 119.666 81.3547 120.471 78.1121C121.276 74.8696 122.496 69.8938 123.181 67.0576C123.988 63.7214 125.838 61.8993 128.421 61.8993C131.856 61.8993 132.226 63.6468 131.071 74.3522ZM156.978 68.5781C162.843 75.5346 157.293 88.6906 147.418 91.2348C135.013 94.4313 129.201 94.9741 129.201 92.9362C129.201 91.7966 132.516 90.4444 136.568 89.9301C152.013 87.9684 157.773 80.7675 151.831 70.8461C150.268 68.2384 147.071 66.6592 142.456 66.218C136.606 65.6593 136.983 65.5101 144.738 65.3117C151.981 65.126 154.676 65.845 156.978 68.5781ZM149.571 72.0984C153.691 77.8391 150.403 83.3529 141.166 86.194C136.708 87.5637 132.896 88.5509 132.696 88.3874C132.493 88.2224 132.886 84.0164 133.563 79.0406C134.753 70.3335 135.863 69.2923 144.878 68.432C145.941 68.3305 148.051 69.9811 149.571 72.0984ZM81.9158 88.808C88.5033 86.5701 90.2258 87.6557 88.2033 92.7743C86.4783 97.1374 81.4183 97.8771 70.8108 95.317C66.2058 94.2044 64.9408 92.9823 65.9258 90.5936C66.9983 87.9859 68.1558 87.6764 71.9758 88.9747C75.2283 90.0793 78.3258 90.0285 81.9158 88.808ZM93.5508 95.8963C91.2033 99.0214 90.4158 101.578 91.8033 101.578C94.6058 101.578 99.8058 94.0012 98.5908 91.6887C98.1658 90.8777 95.8958 92.7711 93.5508 95.8963Z"/>
</mask>
<path fill-rule="evenodd" clip-rule="evenodd" d="M39.9433 2.64738C39.0633 4.1044 40.1083 7.24856 42.2658 9.63565C45.1133 12.7862 45.4358 14.4527 43.4458 15.7161C41.4533 16.981 41.8658 17.4588 44.9508 17.4588C50.3083 17.4588 50.3958 13.7432 45.1558 8.6659C41.8958 5.50903 41.7133 4.28375 44.2108 2.3728C46.4508 0.660257 46.5108 0 44.4283 0C42.8408 0 40.8233 1.19196 39.9433 2.64738ZM67.5933 2.40138C66.7933 3.72189 67.5183 5.85504 69.2008 7.14223C70.8833 8.42941 71.6083 10.5626 70.8083 11.8831C70.0108 13.2036 70.3808 14.2845 71.6308 14.2845C76.1083 14.2845 76.9258 11.0578 73.2833 7.75646C71.2458 5.909 70.1758 3.40763 70.9058 2.19822C71.6383 0.988799 71.5183 0 70.6408 0C69.7608 0 68.3908 1.08086 67.5933 2.40138ZM102.681 3.84411C101.931 5.08527 102.606 7.63107 104.181 9.50075C106.353 12.0783 106.326 13.4512 104.068 15.1796C101.863 16.8668 101.838 17.4588 103.973 17.4588C108.421 17.4588 110.318 12.61 107.136 9.37536C105.566 7.78027 104.946 5.37413 105.758 4.03139C106.571 2.68707 106.518 1.58716 105.641 1.58716C104.761 1.58716 103.431 2.60295 102.681 3.84411ZM113.261 21.8235C112.561 23.3519 111.238 28.1721 110.323 32.5368C108.458 41.4297 103.396 47.6148 97.9808 47.6148C93.4533 47.6148 90.3408 43.8501 88.1458 35.7111C84.2933 21.4203 81.5808 20.6125 69.5008 30.1561C58.6833 38.7029 48.5408 38.9616 38.4683 30.9496C31.3058 25.2502 25.5783 23.8709 23.6408 27.3785C21.3358 31.5512 25.7758 92.9203 28.6208 96.2137C33.7708 102.174 48.4958 105.43 73.0983 106.053C97.7933 106.678 114.393 104.63 121.568 100.075C124.101 98.4675 130.758 96.6613 136.363 96.0598C149.793 94.6186 158.428 90.092 161.941 82.6514C167.448 70.9794 155.941 59.9947 140.831 62.504C138.211 62.9389 133.398 62.185 130.138 60.8295C124.391 58.4393 124.258 57.906 125.718 43.0708C127.293 27.0373 124.788 19.0459 118.181 19.0459C116.178 19.0459 113.963 20.295 113.261 21.8235ZM121.681 36.9015C121.658 55.2046 117.593 81.0135 114.416 83.0308C113.266 83.7608 111.036 82.015 109.461 79.1501C104.188 69.5478 90.2258 63.342 85.2933 68.4082C84.3583 69.3701 82.8858 73.8331 82.0208 78.328C80.7183 85.1099 79.6008 86.5003 75.4508 86.5003C71.4308 86.5003 70.1633 85.1322 68.9858 79.5263C67.2783 71.4064 61.3383 67.8972 50.4508 68.5749C44.0008 68.9764 42.8408 69.7637 42.1683 74.1998C41.5283 78.401 40.3033 79.3581 35.5608 79.3581C32.3558 79.3581 29.0533 78.228 28.2183 76.8472C27.3833 75.4663 26.7008 63.5341 26.7008 50.3289V26.3215L37.4208 33.0003C53.1583 42.8057 60.4758 42.128 74.9708 29.5164C79.1283 25.8993 84.1958 27.3896 84.2158 32.2337C84.2408 38.9347 89.4658 47.5926 94.5183 49.3099C104.396 52.6652 109.388 46.9054 115.248 25.3946C115.843 23.2122 116.413 21.2489 116.516 21.0299C116.618 20.8109 117.826 20.6331 119.201 20.6331C120.706 20.6331 121.693 27.1055 121.681 36.9015ZM40.8683 43.912C39.9508 44.4929 39.2008 47.3498 39.2008 50.2606C39.2008 54.4761 40.2083 55.5506 44.1533 55.5506C49.4708 55.5506 53.3733 49.4956 50.7983 45.2373C49.3133 42.7803 43.8083 42.0439 40.8683 43.912ZM65.9533 43.8564C62.8333 45.8372 64.0958 51.9319 68.0558 54.019C73.3458 56.8061 77.3158 54.0032 76.2708 48.218C75.4883 43.8834 69.7383 41.4535 65.9533 43.8564ZM44.4133 52.8763C42.4633 54.1143 41.7008 53.4667 41.7008 50.5781C41.7008 45.3436 45.2033 43.1057 46.2883 47.6466C46.7483 49.5766 45.9033 51.9303 44.4133 52.8763ZM74.2008 48.4084C74.2008 50.8161 69.6408 53.1858 67.5558 51.8605C66.8358 51.4034 66.9908 49.5353 67.9033 47.7117C69.6583 44.1977 74.2008 44.7008 74.2008 48.4084ZM131.071 74.3522C129.796 86.1622 124.591 96.0724 118.226 98.8008C107.403 103.443 64.9558 105.008 47.3658 101.413C36.9533 99.2865 29.2008 92.9727 29.2008 86.6209C29.2008 82.2261 30.0258 81.6213 35.9383 81.6769C41.5783 81.7293 42.9583 80.8849 44.3983 76.4996C46.6633 69.6113 48.0108 68.9542 56.1258 70.7842C62.7258 72.273 62.9508 72.711 62.9508 84.0545C62.9508 95.5804 63.0833 95.8217 70.4508 97.8167C82.8733 101.18 86.6208 100.502 90.8158 94.1282C94.3183 88.8064 94.3058 88.0938 90.6883 86.4146C86.1208 84.2941 85.0458 70.6715 89.3108 68.9987C93.6933 67.2798 103.668 72.619 105.393 77.6074C107.213 82.8641 112.668 86.4955 116.493 84.9941C117.876 84.4513 119.666 81.3547 120.471 78.1121C121.276 74.8696 122.496 69.8938 123.181 67.0576C123.988 63.7214 125.838 61.8993 128.421 61.8993C131.856 61.8993 132.226 63.6468 131.071 74.3522ZM156.978 68.5781C162.843 75.5346 157.293 88.6906 147.418 91.2348C135.013 94.4313 129.201 94.9741 129.201 92.9362C129.201 91.7966 132.516 90.4444 136.568 89.9301C152.013 87.9684 157.773 80.7675 151.831 70.8461C150.268 68.2384 147.071 66.6592 142.456 66.218C136.606 65.6593 136.983 65.5101 144.738 65.3117C151.981 65.126 154.676 65.845 156.978 68.5781ZM149.571 72.0984C153.691 77.8391 150.403 83.3529 141.166 86.194C136.708 87.5637 132.896 88.5509 132.696 88.3874C132.493 88.2224 132.886 84.0164 133.563 79.0406C134.753 70.3335 135.863 69.2923 144.878 68.432C145.941 68.3305 148.051 69.9811 149.571 72.0984ZM81.9158 88.808C88.5033 86.5701 90.2258 87.6557 88.2033 92.7743C86.4783 97.1374 81.4183 97.8771 70.8108 95.317C66.2058 94.2044 64.9408 92.9823 65.9258 90.5936C66.9983 87.9859 68.1558 87.6764 71.9758 88.9747C75.2283 90.0793 78.3258 90.0285 81.9158 88.808ZM93.5508 95.8963C91.2033 99.0214 90.4158 101.578 91.8033 101.578C94.6058 101.578 99.8058 94.0012 98.5908 91.6887C98.1658 90.8777 95.8958 92.7711 93.5508 95.8963Z" fill="#3B3B3B" stroke="#3B3B3B" stroke-width="2" mask="url(#path-1-inside-1_499_31)"/>
<path d="M158.626 112.461C157.994 108.856 158.494 106.976 160.243 106.388C161.469 105.976 163.444 106.238 165.236 107.049C167.185 107.932 166.601 108.201 163.839 107.693C162.117 107.375 161.442 107.382 160.875 107.725C160.108 108.187 160.052 111.38 160.748 114.87C161.153 116.894 162.045 117.231 164.724 116.37C165.39 116.156 166.11 116.086 166.324 116.214C166.941 116.586 163.88 117.821 162.321 117.83C161.056 117.837 160.943 117.962 161.246 119.006C162.093 121.917 162.37 125.39 161.757 125.39C161.407 125.39 160.978 125.107 160.804 124.761C160.57 124.297 159.243 118.515 159.243 117.962C159.243 117.921 158.636 117.836 157.895 117.773C157.154 117.709 156.547 117.415 156.547 117.118C156.547 116.821 157.154 116.527 157.895 116.464C158.636 116.401 159.238 116.239 159.232 116.104C159.226 115.969 158.954 114.331 158.626 112.461Z" fill="#3B3B3B"/>
<path d="M2.71883 119.636C1.93772 119.636 1.46331 118.441 0.16646 113.209C-0.133643 111.997 -0.0432737 111.673 0.562923 111.795C1.46263 111.975 2.01979 113.169 2.59364 116.15C2.85361 117.498 3.24478 118.19 3.69763 118.103C4.08339 118.028 5.77906 116.772 7.46526 115.311C9.15207 113.849 10.827 112.595 11.1876 112.523C11.5476 112.451 12.004 112.848 12.201 113.406C12.6677 114.726 15.5364 118.496 16.402 118.928C17.3011 119.376 19.5515 117.924 22.5196 114.981C24.8611 112.66 26.2628 111.896 26.2628 112.941C26.2628 114.332 19.8702 119.795 17.7761 120.194C16.1683 120.501 14.2862 119.269 12.3873 116.669C11.7015 115.729 10.9318 114.96 10.6772 114.96C10.4226 114.96 9.36358 115.757 8.32371 116.729C6.42245 118.508 4.24809 119.636 2.71883 119.636Z" fill="#3B3B3B"/>
<path d="M174.983 121.235C169.863 119.221 170.121 113.942 175.416 112.354C177.963 111.589 177.774 111.591 179.112 112.319C181.756 113.755 179.76 116.133 175.38 116.764C173.464 117.04 172.421 117.38 172.421 117.73C172.421 118.658 176.339 120.711 178.201 120.757C180.994 120.827 181.626 120.699 183.353 119.718C184.259 119.203 185 118.966 185 119.192C185 120.079 183.555 121.432 182.363 121.661C180.312 122.054 176.507 121.835 174.983 121.235Z" fill="#3B3B3B"/>
<path d="M124.639 119.64C124.981 116.764 126.538 114.974 129.445 114.113C131.656 113.459 131.837 113.44 133.137 113.74C134.652 114.089 134.239 114.524 132.138 114.791C128.299 115.278 126.308 117.271 126.301 120.632C126.298 121.929 126.534 122.233 127.819 122.585C129.088 122.932 129.789 122.871 132.028 122.218C135.25 121.278 136.346 121.204 135.246 122C134.178 122.772 130.217 123.951 128.69 123.951C128.003 123.951 126.745 123.534 125.893 123.022C124.459 122.161 124.368 121.915 124.639 119.64Z" fill="#3B3B3B"/>
<path d="M32.8519 117.082C32.8519 116.667 33.8026 115.756 34.9647 115.058C36.8396 113.933 37.3271 113.814 39.3075 114.005C43.5125 114.409 45.1328 117.077 42.0557 118.53C40.9032 119.075 39.6081 119.276 37.2558 119.276H34.0337L34.9633 120.611C35.4743 121.346 36.3285 122.236 36.861 122.589C38.2567 123.515 41.4871 123.401 44.1042 122.333C47.2538 121.048 48.4621 121.172 46.2919 122.557C44.4235 123.75 41.4566 124.671 39.4811 124.671C37.4744 124.671 34.2134 122.634 33.1543 120.72C32.4469 119.442 31.8354 118.93 30.9159 118.849C28.832 118.664 28.905 117.837 31.0051 117.837C32.4817 117.837 32.8519 117.686 32.8519 117.082Z" fill="#3B3B3B"/>
<path d="M95.7478 116.077C95.7478 115.133 95.9329 114.25 96.1599 114.114C97.192 113.494 97.8299 114.244 97.634 115.848L97.4237 117.572L99.5808 117.329C102.506 116.999 102.552 117.974 99.6413 118.606C97.2668 119.121 97.068 119.704 98.1935 122.855C99.1897 125.644 101.806 126.298 105.781 124.752C106.974 124.288 107.129 124.292 107.129 124.785C107.129 125.603 103.931 126.829 101.795 126.829C98.4469 126.829 96.4714 124.991 95.8221 121.272L95.4483 119.131L93.3517 119.114C90.3423 119.089 90.4705 118.056 93.5015 117.906L95.7478 117.794V116.077Z" fill="#3B3B3B"/>
<path d="M63.46 124.349C61.509 123.587 63.1503 116.566 65.6793 114.853C66.3616 114.391 67.3128 114.237 69.0145 114.314C72.0383 114.45 72.7471 115.32 69.8335 115.32C66.4515 115.32 64.812 117.136 64.4759 121.254L64.2998 123.412L66.8228 123.522C68.2101 123.582 69.9179 123.448 70.6175 123.223C72.4672 122.629 72.9292 123.176 71.2627 123.987C68.8421 125.165 65.8991 125.302 63.46 124.349Z" fill="#3B3B3B"/>
<path d="M142.144 120.911C139.729 119.461 140.392 116.102 143.334 114.876C145.138 114.123 150.857 115.138 150.857 116.21C150.857 116.651 150.569 116.649 148.779 116.201C147.637 115.914 146.051 115.68 145.254 115.68C142.331 115.68 140.703 118.889 142.995 120.134C144.062 120.715 144.196 120.689 145.678 119.632C146.536 119.02 147.512 118.244 147.848 117.908C148.396 117.359 148.592 117.394 149.806 118.265C150.549 118.797 151.75 119.808 152.476 120.513C154.416 122.395 152.539 122.218 150.449 120.321C148.941 118.953 148.771 118.896 148.046 119.512C146.711 120.646 144.766 121.794 144.177 121.794C143.867 121.794 142.953 121.396 142.144 120.911Z" fill="#3B3B3B"/>
<path d="M75.1161 123.512C73.7174 122.313 73.9091 119.583 75.4749 118.387C76.5657 117.555 77.085 117.433 78.8227 117.602C81.0486 117.819 82.7337 118.466 82.2629 118.923C82.1018 119.08 81.0223 119.034 79.865 118.821C78.0392 118.484 77.6458 118.524 76.8898 119.124C75.6313 120.123 75.7043 122.732 76.9994 123.03C78.4394 123.362 80.9595 122.139 81.6453 120.775C82.3947 119.284 83.1099 119.347 85.1543 121.082C86.1576 121.933 87.3239 122.513 88.035 122.513C88.6921 122.513 89.0628 122.675 88.8592 122.872C88.2506 123.464 85.8227 123.28 84.7385 122.561C83.7591 121.911 83.6627 121.928 81.7106 123.1C79.2612 124.571 76.5489 124.74 75.1161 123.512Z" fill="#3B3B3B"/>
</svg>
