<svg width="40" height="38" viewBox="0 0 40 38" fill="none" xmlns="http://www.w3.org/2000/svg">
<path d="M24.2945 14.6063V20.6371C24.2945 20.7897 24.1695 20.9085 24.0088 20.9085H22.9909C22.8927 20.9085 22.8034 20.8576 22.7588 20.7982L19.8481 17.0661V20.6455C19.8481 20.7982 19.7231 20.917 19.5624 20.917H18.5445C18.3838 20.917 18.2588 20.7982 18.2588 20.6455V14.6147C18.2588 14.4621 18.3838 14.3433 18.5445 14.3433H19.5535C19.6427 14.3433 19.741 14.3857 19.7856 14.4621L22.6963 18.1942V14.6147C22.6963 14.4621 22.8213 14.3433 22.982 14.3433H23.9999C24.1606 14.3348 24.2945 14.4621 24.2945 14.6063ZM16.9731 14.3348H15.9552C15.7945 14.3348 15.6695 14.4536 15.6695 14.6063V20.6371C15.6695 20.7897 15.7945 20.9085 15.9552 20.9085H16.9731C17.1338 20.9085 17.2588 20.7897 17.2588 20.6371V14.6063C17.2588 14.4621 17.1338 14.3348 16.9731 14.3348ZM14.5177 19.3902H11.741V14.6063C11.741 14.4536 11.616 14.3348 11.4552 14.3348H10.4374C10.2767 14.3348 10.1517 14.4536 10.1517 14.6063V20.6371C10.1517 20.7134 10.1785 20.7728 10.232 20.8237C10.2856 20.8661 10.3481 20.9 10.4285 20.9H14.5088C14.6695 20.9 14.7945 20.7812 14.7945 20.6286V19.6616C14.7945 19.5174 14.6695 19.3902 14.5177 19.3902ZM29.6517 14.3348H25.5713C25.4195 14.3348 25.2856 14.4536 25.2856 14.6063V20.6371C25.2856 20.7812 25.4106 20.9085 25.5713 20.9085H29.6517C29.8124 20.9085 29.9374 20.7897 29.9374 20.6371V19.6701C29.9374 19.5174 29.8124 19.3987 29.6517 19.3987H26.8749V18.3808H29.6517C29.8124 18.3808 29.9374 18.2621 29.9374 18.1094V17.1339C29.9374 16.9813 29.8124 16.8625 29.6517 16.8625H26.8749V15.8446H29.6517C29.8124 15.8446 29.9374 15.7259 29.9374 15.5732V14.6063C29.9284 14.4621 29.8034 14.3348 29.6517 14.3348ZM39.9999 6.92992V31.1295C39.9909 34.9295 36.7141 38.0085 32.7052 38H7.23203C3.23204 37.9915 -0.00903223 34.8701 -0.000103667 31.0701V6.87055C0.0088249 3.07055 3.29454 -0.00846465 7.29453 1.74831e-05H32.7677C36.7677 0.00849962 40.0088 3.12144 39.9999 6.92992ZM34.4999 17.329C34.4999 11.1371 27.9642 6.09867 19.9374 6.09867C11.9106 6.09867 5.37489 11.1371 5.37489 17.329C5.37489 22.8763 10.5535 27.5245 17.5535 28.4067C19.2588 28.7545 19.0624 29.3482 18.6785 31.5281C18.616 31.8759 18.3838 32.8937 19.9374 32.2745C21.4909 31.6553 28.3213 27.5839 31.3838 24.242C33.4909 22.0366 34.4999 19.8058 34.4999 17.329Z" fill="#5F4343"/>
</svg>
