<svg width="38" height="38" viewBox="0 0 38 38" fill="none" xmlns="http://www.w3.org/2000/svg">
<path d="M33.9286 0H4.07143C2.99162 0 1.95603 0.428953 1.19249 1.19249C0.428953 1.95603 0 2.99162 0 4.07143L0 33.9286C0 35.0084 0.428953 36.044 1.19249 36.8075C1.95603 37.571 2.99162 38 4.07143 38H15.7132V25.0809H10.3694V19H15.7132V14.3654C15.7132 9.09371 18.8516 6.18179 23.6584 6.18179C25.9604 6.18179 28.3677 6.59232 28.3677 6.59232V11.7664H25.7153C23.102 11.7664 22.2868 13.3882 22.2868 15.0516V19H28.1208L27.1878 25.0809H22.2868V38H33.9286C35.0084 38 36.044 37.571 36.8075 36.8075C37.571 36.044 38 35.0084 38 33.9286V4.07143C38 2.99162 37.571 1.95603 36.8075 1.19249C36.044 0.428953 35.0084 0 33.9286 0Z" fill="#5F4343"/>
</svg>
