<svg width="33" height="33" viewBox="0 0 33 33" fill="none" xmlns="http://www.w3.org/2000/svg">
<path d="M29.4642 0H3.53559C2.59786 0 1.69854 0.372512 1.03546 1.03559C0.37239 1.69866 -0.00012207 2.59798 -0.00012207 3.53571L-0.00012207 29.4643C-0.00012207 30.402 0.37239 31.3013 1.03546 31.9644C1.69854 32.6275 2.59786 33 3.53559 33H13.6455V21.7807H9.0049V16.5H13.6455V12.4752C13.6455 7.89717 16.371 5.36839 20.5453 5.36839C22.5445 5.36839 24.635 5.72491 24.635 5.72491V10.2182H22.3316C20.0621 10.2182 19.3542 11.6266 19.3542 13.0711V16.5H24.4206L23.6103 21.7807H19.3542V33H29.4642C30.4019 33 31.3012 32.6275 31.9643 31.9644C32.6274 31.3013 32.9999 30.402 32.9999 29.4643V3.53571C32.9999 2.59798 32.6274 1.69866 31.9643 1.03559C31.3012 0.372512 30.4019 0 29.4642 0Z" fill="#5F4343"/>
</svg>
