<svg width="38" height="38" viewBox="0 0 38 38" fill="none" xmlns="http://www.w3.org/2000/svg">
<path d="M19.0041 9.25728C13.6125 9.25728 9.26357 13.6072 9.26357 19C9.26357 24.3928 13.6125 28.7427 19.0041 28.7427C24.3958 28.7427 28.7447 24.3928 28.7447 19C28.7447 13.6072 24.3958 9.25728 19.0041 9.25728ZM19.0041 25.334C15.5199 25.334 12.6715 22.4935 12.6715 19C12.6715 15.5065 15.5114 12.666 19.0041 12.666C22.4968 12.666 25.3367 15.5065 25.3367 19C25.3367 22.4935 22.4883 25.334 19.0041 25.334ZM31.415 8.85875C31.415 10.1222 30.3978 11.1312 29.1431 11.1312C27.88 11.1312 26.8712 10.1137 26.8712 8.85875C26.8712 7.60382 27.8884 6.5863 29.1431 6.5863C30.3978 6.5863 31.415 7.60382 31.415 8.85875ZM37.8664 11.1651C37.7222 8.12105 37.0271 5.42463 34.7975 3.20306C32.5765 0.981479 29.8806 0.286177 26.8372 0.133549C23.7006 -0.0445163 14.2992 -0.0445163 11.1625 0.133549C8.1276 0.277697 5.43178 0.973 3.20222 3.19458C0.972661 5.41616 0.285991 8.11257 0.133397 11.1566C-0.0446285 14.294 -0.0446285 23.6975 0.133397 26.8349C0.277513 29.8789 0.972661 32.5754 3.20222 34.7969C5.43178 37.0185 8.11912 37.7138 11.1625 37.8665C14.2992 38.0445 23.7006 38.0445 26.8372 37.8665C29.8806 37.7223 32.5765 37.027 34.7975 34.7969C37.0186 32.5754 37.7138 29.8789 37.8664 26.8349C38.0444 23.6975 38.0444 14.3025 37.8664 11.1651ZM33.8142 30.2012C33.1529 31.8631 31.8728 33.1435 30.2028 33.8133C27.7019 34.8054 21.7678 34.5765 19.0041 34.5765C16.2405 34.5765 10.2978 34.7969 7.80546 33.8133C6.14388 33.152 4.86379 31.8716 4.19408 30.2012C3.20222 27.6998 3.43111 21.7643 3.43111 19C3.43111 16.2357 3.2107 10.2918 4.19408 7.79884C4.85532 6.1369 6.13541 4.85652 7.80546 4.18666C10.3063 3.19458 16.2405 3.42352 19.0041 3.42352C21.7678 3.42352 27.7104 3.20306 30.2028 4.18666C31.8644 4.84804 33.1444 6.12842 33.8142 7.79884C34.806 10.3002 34.5771 16.2357 34.5771 19C34.5771 21.7643 34.806 27.7082 33.8142 30.2012Z" fill="#5F4343"/>
</svg>
