<svg width="275" height="27" viewBox="0 0 275 27" fill="none" xmlns="http://www.w3.org/2000/svg">
<path d="M9.25962 26.7401L2.51044 2.85921H5.47747L11.1181 23.7834H10.5312L10.6616 23.296L16.7587 2.85921H18.2259L24.4534 23.9134H23.8991L24.0296 23.3935L29.4093 2.85921H30.7787L24.2578 26.7401H22.7254L16.4001 5.97834H17.0195L16.8565 6.4657L10.792 26.7401H9.25962ZM-0.00012207 3.86643V2.85921H9.19441V3.86643L4.92319 4.22383H4.17328L-0.00012207 3.86643ZM13.0744 3.86643V2.85921H22.1711V3.86643L18.0629 4.22383H17.0522L13.0744 3.86643ZM25.7576 3.86643V2.85921H33.6806V3.86643L30.0614 4.22383H29.3767L25.7576 3.86643Z" fill="#5F4343"/>
<path d="M50.6322 27C45.7741 27 42.318 24.0433 42.318 18.1949C42.318 12.704 46.035 9.29242 50.3388 9.29242C54.5774 9.29242 57.088 12.2166 57.088 16.018C57.088 16.8303 57.0227 17.4801 56.8923 18H43.557V16.9603H53.045C54.1861 16.9603 54.5122 16.4079 54.5122 15.0758C54.5122 12.3141 52.9472 10.3321 50.2736 10.3321C47.4044 10.3321 45.122 13.0939 45.122 17.8051C45.122 23.0686 47.7304 25.3755 51.3495 25.3755C53.6319 25.3755 55.2947 24.5632 56.6315 23.0036L57.1532 23.4585C55.7186 25.6679 53.5667 27 50.6322 27Z" fill="#5F4343"/>
<path d="M96.1398 27C91.3795 27 88.0538 23.7834 88.0538 18.3574C88.0538 12.574 92.0968 9.29242 96.5636 9.29242C99.498 9.29242 101.878 10.982 102.628 13.5487C102.4 14.3285 101.943 14.6859 101.226 14.6859C100.313 14.6859 99.7915 14.231 99.5959 13.0939L98.7807 10.2347L100.411 11.5343C99.0742 10.657 97.9656 10.3321 96.7266 10.3321C93.401 10.3321 90.8578 13.2563 90.8578 18.0325C90.8578 22.7112 93.401 25.3755 97.0853 25.3755C99.009 25.3755 100.704 24.6282 102.139 23.0686L102.661 23.491C101.226 25.7329 99.2698 27 96.1398 27Z" fill="#5F4343"/>
<path d="M119.913 27C117.337 27 115.413 25.5054 115.413 22.7762C115.413 20.2744 116.946 18.6173 121.25 17.3502C123.076 16.8303 125.162 16.278 126.923 15.8881V16.6679C125.195 17.1227 123.304 17.6426 121.837 18.1949C119.098 19.2022 118.022 20.5993 118.022 22.3538C118.022 24.4007 119.261 25.4079 121.087 25.4079C122.521 25.4079 123.793 24.6606 126.303 22.1588L126.597 23.6859H125.814C123.793 25.8953 122.358 27 119.913 27ZM128.618 26.9675C126.695 26.9675 125.749 25.6029 125.619 23.296V14.8484C125.619 11.2419 124.478 10.2996 121.902 10.2996C120.63 10.2996 119.424 10.6245 117.957 11.4368L119.391 10.5596L118.837 13.1264C118.674 14.296 118.087 14.6859 117.305 14.6859C116.555 14.6859 116.033 14.296 115.87 13.5487C116.489 10.8845 118.935 9.29242 122.619 9.29242C126.401 9.29242 128.227 10.9495 128.227 15.0108V23.0361C128.227 25.0505 128.684 25.6354 129.597 25.6354C130.151 25.6354 130.509 25.4404 131.064 24.8231L131.585 25.343C130.868 26.4477 129.89 26.9675 128.618 26.9675Z" fill="#5F4343"/>
<path d="M146.702 10.9819V9.77978H152.734V10.9819H146.702ZM149.343 27C146.604 27 145.333 25.6029 145.333 22.7112C145.333 21.6715 145.366 20.9892 145.366 19.787V10.9819H142.138V9.97473L146.05 9.68231L145.431 10.1372L146.376 4.6787H148.202L148.072 10.2671V22.7112C148.072 24.7256 148.854 25.5704 150.289 25.5704C151.267 25.5704 151.886 25.3105 152.767 24.7581L153.223 25.343C152.343 26.4152 151.071 27 149.343 27Z" fill="#5F4343"/>
<path d="M191.209 27C186.449 27 183.123 23.7834 183.123 18.3574C183.123 12.574 187.166 9.29242 191.633 9.29242C194.568 9.29242 196.948 10.982 197.698 13.5487C197.469 14.3285 197.013 14.6859 196.296 14.6859C195.383 14.6859 194.861 14.231 194.665 13.0939L193.85 10.2347L195.481 11.5343C194.144 10.657 193.035 10.3321 191.796 10.3321C188.471 10.3321 185.927 13.2563 185.927 18.0325C185.927 22.7112 188.47 25.3755 192.155 25.3755C194.079 25.3755 195.774 24.6282 197.209 23.0686L197.73 23.491C196.296 25.7329 194.339 27 191.209 27Z" fill="#5F4343"/>
<path d="M214.982 27C212.407 27 210.483 25.5054 210.483 22.7762C210.483 20.2744 212.015 18.6173 216.319 17.3502C218.145 16.8303 220.232 16.278 221.992 15.8881V16.6679C220.264 17.1227 218.373 17.6426 216.906 18.1949C214.167 19.2022 213.091 20.5993 213.091 22.3538C213.091 24.4007 214.33 25.4079 216.156 25.4079C217.591 25.4079 218.862 24.6606 221.373 22.1588L221.666 23.6859H220.884C218.862 25.8953 217.428 27 214.982 27ZM223.688 26.9675C221.764 26.9675 220.819 25.6029 220.688 23.296V14.8484C220.688 11.2419 219.547 10.2996 216.971 10.2996C215.7 10.2996 214.493 10.6245 213.026 11.4368L214.461 10.5596L213.907 13.1264C213.743 14.296 213.157 14.6859 212.374 14.6859C211.624 14.6859 211.103 14.296 210.939 13.5487C211.559 10.8845 214.004 9.29242 217.689 9.29242C221.471 9.29242 223.297 10.9495 223.297 15.0108V23.0361C223.297 25.0505 223.753 25.6354 224.666 25.6354C225.22 25.6354 225.579 25.4404 226.133 24.8231L226.655 25.343C225.938 26.4477 224.96 26.9675 223.688 26.9675Z" fill="#5F4343"/>
<path d="M237.924 26.5126V25.6354L241.707 25.278H242.978L246.989 25.6354V26.5126H237.924ZM240.794 26.5126C240.859 24.0758 240.924 21.574 240.924 19.1047V10.9819H237.827V9.97473L241.902 9.61733L240.892 10.1372V9.94224C241.12 5.78339 242.033 3.44404 243.761 1.8195C245.13 0.552348 246.695 0 248.293 0C249.858 0 251.227 0.584838 251.553 1.72202C251.521 2.46931 250.901 3.05415 249.956 3.05415C249.108 3.05415 248.391 2.59928 247.51 1.62455L246.597 0.714803V0.422384H247.967V0.714803C246.728 0.812276 245.554 1.62455 244.902 2.69675C243.826 4.28881 243.467 6.27076 243.598 10.5271V19.1047C243.598 21.574 243.63 24.0758 243.696 26.5126H240.794ZM242.294 10.9819V9.77978H248.619V10.9819H242.294Z" fill="#5F4343"/>
<path d="M268.479 27C263.621 27 260.165 24.0433 260.165 18.1949C260.165 12.704 263.882 9.29242 268.186 9.29242C272.424 9.29242 274.935 12.2166 274.935 16.018C274.935 16.8303 274.869 17.4801 274.739 18H261.404V16.9603H270.892C272.033 16.9603 272.359 16.4079 272.359 15.0758C272.359 12.3141 270.794 10.3321 268.12 10.3321C265.251 10.3321 262.969 13.0939 262.969 17.8051C262.969 23.0686 265.577 25.3755 269.196 25.3755C271.479 25.3755 273.141 24.5632 274.478 23.0036L275 23.4585C273.565 25.6679 271.413 27 268.479 27Z" fill="#5F4343"/>
</svg>
